<svg xmlns="http://www.w3.org/2000/svg" version="1.1" xmlns:xlink="http://www.w3.org/1999/xlink" xmlns:svgjs="http://svgjs.com/svgjs" width="1440" height="560" preserveAspectRatio="none" viewBox="0 0 1440 560"><g mask="url(&quot;#SvgjsMask1074&quot;)" fill="none"><g mask="url(&quot;#SvgjsMask1075&quot;)"><path d="M1262.5 287.5L1237.5 312.5M1237.5 287.5L1212.5 262.5M1287.5 287.5L1262.5 312.5M1062.5 262.5L1037.5 237.5M1112.5 262.5L1087.5 237.5L1062.5 237.5M1462.5 287.5L1437.5 287.5L1412.5 287.5L1387.5 287.5L1362.5 287.5L1337.5 287.5L1312.5 287.5L1287.5 287.5L1262.5 287.5L1237.5 287.5L1212.5 287.5L1187.5 287.5L1162.5 262.5L1137.5 262.5L1112.5 262.5L1087.5 262.5L1062.5 262.5L1037.5 262.5L1012.5 262.5L987.5 262.5L962.5 262.5L937.5 262.5" stroke="rgba(0, 0, 255, 1)" stroke-width="4.17"></path><path d="M931.25 262.5 a6.25 6.25 0 1 0 12.5 0 a6.25 6.25 0 1 0 -12.5 0zM1231.25 312.5 a6.25 6.25 0 1 0 12.5 0 a6.25 6.25 0 1 0 -12.5 0zM1206.25 262.5 a6.25 6.25 0 1 0 12.5 0 a6.25 6.25 0 1 0 -12.5 0zM1256.25 312.5 a6.25 6.25 0 1 0 12.5 0 a6.25 6.25 0 1 0 -12.5 0zM1031.25 237.5 a6.25 6.25 0 1 0 12.5 0 a6.25 6.25 0 1 0 -12.5 0zM1056.25 237.5 a6.25 6.25 0 1 0 12.5 0 a6.25 6.25 0 1 0 -12.5 0z" fill="rgba(0, 0, 255, 1)"></path><path d="M1312.5 262.5L1287.5 262.5M1212.5 237.5L1187.5 237.5L1162.5 237.5L1137.5 237.5L1112.5 237.5M1262.5 237.5L1237.5 262.5M1462.5 262.5L1437.5 262.5L1412.5 262.5L1387.5 262.5L1362.5 262.5L1337.5 262.5L1312.5 262.5L1287.5 237.5L1262.5 237.5L1237.5 237.5L1212.5 237.5L1187.5 262.5" stroke="rgba(0, 0, 255, 1)" stroke-width="4.17"></path><path d="M1181.25 262.5 a6.25 6.25 0 1 0 12.5 0 a6.25 6.25 0 1 0 -12.5 0zM1281.25 262.5 a6.25 6.25 0 1 0 12.5 0 a6.25 6.25 0 1 0 -12.5 0zM1106.25 237.5 a6.25 6.25 0 1 0 12.5 0 a6.25 6.25 0 1 0 -12.5 0zM1231.25 262.5 a6.25 6.25 0 1 0 12.5 0 a6.25 6.25 0 1 0 -12.5 0z" fill="rgba(0, 0, 255, 1)"></path><path d="M1462.5 312.5L1437.5 312.5L1412.5 312.5L1387.5 312.5L1362.5 312.5L1337.5 312.5" stroke="rgba(0, 0, 255, 1)" stroke-width="4.17"></path><path d="M1331.25 312.5 a6.25 6.25 0 1 0 12.5 0 a6.25 6.25 0 1 0 -12.5 0z" fill="rgba(0, 0, 255, 1)"></path><path d="M1462.5 237.5L1437.5 237.5L1412.5 237.5L1387.5 237.5L1362.5 237.5L1337.5 237.5L1312.5 237.5L1287.5 212.5L1262.5 212.5" stroke="rgba(25, 156, 31, 1)" stroke-width="4.17"></path><path d="M1256.25 212.5 a6.25 6.25 0 1 0 12.5 0 a6.25 6.25 0 1 0 -12.5 0z" fill="rgba(25, 156, 31, 1)"></path><path d="M1312.5 337.5L1287.5 312.5M1187.5 337.5L1162.5 362.5L1137.5 362.5L1112.5 362.5L1087.5 362.5L1062.5 362.5L1037.5 362.5M962.5 337.5L937.5 337.5M1037.5 337.5L1012.5 312.5L987.5 312.5L962.5 312.5M1087.5 337.5L1062.5 312.5M1462.5 337.5L1437.5 337.5L1412.5 337.5L1387.5 337.5L1362.5 337.5L1337.5 337.5L1312.5 337.5L1287.5 337.5L1262.5 337.5L1237.5 337.5L1212.5 337.5L1187.5 337.5L1162.5 337.5L1137.5 337.5L1112.5 337.5L1087.5 337.5L1062.5 337.5L1037.5 337.5L1012.5 337.5L987.5 337.5L962.5 337.5L937.5 362.5L912.5 362.5" stroke="rgba(255, 0, 0, 1)" stroke-width="4.17"></path><path d="M906.25 362.5 a6.25 6.25 0 1 0 12.5 0 a6.25 6.25 0 1 0 -12.5 0zM1281.25 312.5 a6.25 6.25 0 1 0 12.5 0 a6.25 6.25 0 1 0 -12.5 0zM1031.25 362.5 a6.25 6.25 0 1 0 12.5 0 a6.25 6.25 0 1 0 -12.5 0zM931.25 337.5 a6.25 6.25 0 1 0 12.5 0 a6.25 6.25 0 1 0 -12.5 0zM956.25 312.5 a6.25 6.25 0 1 0 12.5 0 a6.25 6.25 0 1 0 -12.5 0zM1056.25 312.5 a6.25 6.25 0 1 0 12.5 0 a6.25 6.25 0 1 0 -12.5 0z" fill="rgba(255, 0, 0, 1)"></path><path d="M1212.5 187.5L1187.5 212.5L1162.5 212.5M1237.5 187.5L1212.5 212.5M1112.5 187.5L1087.5 212.5L1062.5 212.5L1037.5 212.5M987.5 187.5L962.5 212.5L937.5 237.5L912.5 237.5L887.5 237.5L862.5 237.5L837.5 212.5M1337.5 187.5L1312.5 212.5M1012.5 187.5L987.5 212.5L962.5 237.5M1462.5 212.5L1437.5 212.5L1412.5 212.5L1387.5 212.5L1362.5 212.5L1337.5 187.5L1312.5 187.5L1287.5 187.5L1262.5 187.5L1237.5 187.5L1212.5 187.5L1187.5 187.5L1162.5 187.5L1137.5 187.5L1112.5 187.5L1087.5 187.5L1062.5 187.5L1037.5 187.5L1012.5 187.5L987.5 187.5L962.5 187.5L937.5 212.5L912.5 212.5L887.5 212.5" stroke="rgba(0, 0, 255, 1)" stroke-width="4.17"></path><path d="M881.25 212.5 a6.25 6.25 0 1 0 12.5 0 a6.25 6.25 0 1 0 -12.5 0zM1156.25 212.5 a6.25 6.25 0 1 0 12.5 0 a6.25 6.25 0 1 0 -12.5 0zM1206.25 212.5 a6.25 6.25 0 1 0 12.5 0 a6.25 6.25 0 1 0 -12.5 0zM1031.25 212.5 a6.25 6.25 0 1 0 12.5 0 a6.25 6.25 0 1 0 -12.5 0zM831.25 212.5 a6.25 6.25 0 1 0 12.5 0 a6.25 6.25 0 1 0 -12.5 0zM1306.25 212.5 a6.25 6.25 0 1 0 12.5 0 a6.25 6.25 0 1 0 -12.5 0zM956.25 237.5 a6.25 6.25 0 1 0 12.5 0 a6.25 6.25 0 1 0 -12.5 0z" fill="rgba(0, 0, 255, 1)"></path><path d="M1362.5 387.5L1337.5 362.5M1212.5 362.5L1187.5 362.5M887.5 387.5L862.5 362.5L837.5 362.5L812.5 337.5L787.5 337.5M1112.5 412.5L1087.5 387.5L1062.5 387.5L1037.5 387.5M1162.5 387.5L1137.5 387.5L1112.5 387.5M962.5 387.5L937.5 412.5L912.5 412.5L887.5 412.5M1462.5 362.5L1437.5 362.5L1412.5 362.5L1387.5 387.5L1362.5 387.5L1337.5 387.5L1312.5 387.5L1287.5 362.5L1262.5 362.5L1237.5 362.5L1212.5 362.5L1187.5 387.5L1162.5 387.5L1137.5 412.5L1112.5 412.5L1087.5 412.5L1062.5 412.5L1037.5 412.5L1012.5 412.5L987.5 387.5L962.5 387.5L937.5 387.5L912.5 387.5L887.5 387.5L862.5 387.5L837.5 387.5L812.5 387.5" stroke="rgba(0, 0, 255, 1)" stroke-width="4.17"></path><path d="M806.25 387.5 a6.25 6.25 0 1 0 12.5 0 a6.25 6.25 0 1 0 -12.5 0zM1331.25 362.5 a6.25 6.25 0 1 0 12.5 0 a6.25 6.25 0 1 0 -12.5 0zM1181.25 362.5 a6.25 6.25 0 1 0 12.5 0 a6.25 6.25 0 1 0 -12.5 0zM781.25 337.5 a6.25 6.25 0 1 0 12.5 0 a6.25 6.25 0 1 0 -12.5 0zM1031.25 387.5 a6.25 6.25 0 1 0 12.5 0 a6.25 6.25 0 1 0 -12.5 0zM1106.25 387.5 a6.25 6.25 0 1 0 12.5 0 a6.25 6.25 0 1 0 -12.5 0zM881.25 412.5 a6.25 6.25 0 1 0 12.5 0 a6.25 6.25 0 1 0 -12.5 0z" fill="rgba(0, 0, 255, 1)"></path><path d="M1462.5 187.5L1437.5 187.5L1412.5 187.5L1387.5 187.5L1362.5 187.5L1337.5 162.5L1312.5 162.5L1287.5 162.5L1262.5 162.5L1237.5 162.5L1212.5 162.5L1187.5 162.5L1162.5 162.5L1137.5 162.5L1112.5 162.5L1087.5 162.5L1062.5 162.5L1037.5 162.5L1012.5 162.5L987.5 162.5L962.5 162.5L937.5 162.5" stroke="rgba(255, 0, 0, 1)" stroke-width="4.17"></path><path d="M931.25 162.5 a6.25 6.25 0 1 0 12.5 0 a6.25 6.25 0 1 0 -12.5 0z" fill="rgba(255, 0, 0, 1)"></path><path d="M1137.5 437.5L1112.5 462.5M1387.5 412.5L1362.5 437.5L1337.5 462.5L1312.5 462.5L1287.5 487.5M1437.5 387.5L1412.5 412.5L1387.5 437.5L1362.5 462.5L1337.5 487.5M1287.5 387.5L1262.5 412.5L1237.5 412.5L1212.5 412.5L1187.5 437.5M1462.5 387.5L1437.5 387.5L1412.5 387.5L1387.5 412.5L1362.5 412.5L1337.5 412.5L1312.5 412.5L1287.5 387.5L1262.5 387.5L1237.5 387.5L1212.5 387.5L1187.5 412.5L1162.5 412.5L1137.5 437.5L1112.5 437.5L1087.5 437.5L1062.5 437.5L1037.5 437.5L1012.5 437.5" stroke="rgba(255, 0, 0, 1)" stroke-width="4.17"></path><path d="M1006.25 437.5 a6.25 6.25 0 1 0 12.5 0 a6.25 6.25 0 1 0 -12.5 0zM1106.25 462.5 a6.25 6.25 0 1 0 12.5 0 a6.25 6.25 0 1 0 -12.5 0zM1281.25 487.5 a6.25 6.25 0 1 0 12.5 0 a6.25 6.25 0 1 0 -12.5 0zM1331.25 487.5 a6.25 6.25 0 1 0 12.5 0 a6.25 6.25 0 1 0 -12.5 0zM1181.25 437.5 a6.25 6.25 0 1 0 12.5 0 a6.25 6.25 0 1 0 -12.5 0z" fill="rgba(255, 0, 0, 1)"></path><path d="M1337.5 137.5L1312.5 112.5L1287.5 112.5L1262.5 112.5L1237.5 112.5L1212.5 112.5L1187.5 112.5M962.5 137.5L937.5 112.5L912.5 112.5L887.5 87.5M1087.5 137.5L1062.5 112.5L1037.5 112.5L1012.5 112.5L987.5 112.5M1162.5 137.5L1137.5 112.5L1112.5 112.5L1087.5 112.5L1062.5 87.5L1037.5 87.5L1012.5 87.5M1387.5 162.5L1362.5 137.5M1437.5 162.5L1412.5 137.5L1387.5 112.5L1362.5 87.5L1337.5 87.5M1462.5 162.5L1437.5 162.5L1412.5 162.5L1387.5 162.5L1362.5 162.5L1337.5 137.5L1312.5 137.5L1287.5 137.5L1262.5 137.5L1237.5 137.5L1212.5 137.5L1187.5 137.5L1162.5 137.5L1137.5 137.5L1112.5 137.5L1087.5 137.5L1062.5 137.5L1037.5 137.5L1012.5 137.5L987.5 137.5L962.5 137.5L937.5 137.5L912.5 137.5L887.5 112.5L862.5 112.5" stroke="rgba(25, 156, 31, 1)" stroke-width="4.17"></path><path d="M856.25 112.5 a6.25 6.25 0 1 0 12.5 0 a6.25 6.25 0 1 0 -12.5 0zM1181.25 112.5 a6.25 6.25 0 1 0 12.5 0 a6.25 6.25 0 1 0 -12.5 0zM881.25 87.5 a6.25 6.25 0 1 0 12.5 0 a6.25 6.25 0 1 0 -12.5 0zM981.25 112.5 a6.25 6.25 0 1 0 12.5 0 a6.25 6.25 0 1 0 -12.5 0zM1006.25 87.5 a6.25 6.25 0 1 0 12.5 0 a6.25 6.25 0 1 0 -12.5 0zM1356.25 137.5 a6.25 6.25 0 1 0 12.5 0 a6.25 6.25 0 1 0 -12.5 0zM1331.25 87.5 a6.25 6.25 0 1 0 12.5 0 a6.25 6.25 0 1 0 -12.5 0z" fill="rgba(25, 156, 31, 1)"></path></g></g><defs><mask id="SvgjsMask1074"><rect width="1440" height="560" fill="#ffffff"></rect></mask><mask id="SvgjsMask1075"><rect width="1440" height="560" fill="white"></rect><path d="M934.37 262.5 a3.13 3.13 0 1 0 6.26 0 a3.13 3.13 0 1 0 -6.26 0zM1234.37 312.5 a3.13 3.13 0 1 0 6.26 0 a3.13 3.13 0 1 0 -6.26 0zM1209.37 262.5 a3.13 3.13 0 1 0 6.26 0 a3.13 3.13 0 1 0 -6.26 0zM1259.37 312.5 a3.13 3.13 0 1 0 6.26 0 a3.13 3.13 0 1 0 -6.26 0zM1034.37 237.5 a3.13 3.13 0 1 0 6.26 0 a3.13 3.13 0 1 0 -6.26 0zM1059.37 237.5 a3.13 3.13 0 1 0 6.26 0 a3.13 3.13 0 1 0 -6.26 0z" fill="black"></path><path d="M1184.37 262.5 a3.13 3.13 0 1 0 6.26 0 a3.13 3.13 0 1 0 -6.26 0zM1284.37 262.5 a3.13 3.13 0 1 0 6.26 0 a3.13 3.13 0 1 0 -6.26 0zM1109.37 237.5 a3.13 3.13 0 1 0 6.26 0 a3.13 3.13 0 1 0 -6.26 0zM1234.37 262.5 a3.13 3.13 0 1 0 6.26 0 a3.13 3.13 0 1 0 -6.26 0z" fill="black"></path><path d="M1334.37 312.5 a3.13 3.13 0 1 0 6.26 0 a3.13 3.13 0 1 0 -6.26 0z" fill="black"></path><path d="M1259.37 212.5 a3.13 3.13 0 1 0 6.26 0 a3.13 3.13 0 1 0 -6.26 0z" fill="black"></path><path d="M909.37 362.5 a3.13 3.13 0 1 0 6.26 0 a3.13 3.13 0 1 0 -6.26 0zM1284.37 312.5 a3.13 3.13 0 1 0 6.26 0 a3.13 3.13 0 1 0 -6.26 0zM1034.37 362.5 a3.13 3.13 0 1 0 6.26 0 a3.13 3.13 0 1 0 -6.26 0zM934.37 337.5 a3.13 3.13 0 1 0 6.26 0 a3.13 3.13 0 1 0 -6.26 0zM959.37 312.5 a3.13 3.13 0 1 0 6.26 0 a3.13 3.13 0 1 0 -6.26 0zM1059.37 312.5 a3.13 3.13 0 1 0 6.26 0 a3.13 3.13 0 1 0 -6.26 0z" fill="black"></path><path d="M884.37 212.5 a3.13 3.13 0 1 0 6.26 0 a3.13 3.13 0 1 0 -6.26 0zM1159.37 212.5 a3.13 3.13 0 1 0 6.26 0 a3.13 3.13 0 1 0 -6.26 0zM1209.37 212.5 a3.13 3.13 0 1 0 6.26 0 a3.13 3.13 0 1 0 -6.26 0zM1034.37 212.5 a3.13 3.13 0 1 0 6.26 0 a3.13 3.13 0 1 0 -6.26 0zM834.37 212.5 a3.13 3.13 0 1 0 6.26 0 a3.13 3.13 0 1 0 -6.26 0zM1309.37 212.5 a3.13 3.13 0 1 0 6.26 0 a3.13 3.13 0 1 0 -6.26 0zM959.37 237.5 a3.13 3.13 0 1 0 6.26 0 a3.13 3.13 0 1 0 -6.26 0z" fill="black"></path><path d="M809.37 387.5 a3.13 3.13 0 1 0 6.26 0 a3.13 3.13 0 1 0 -6.26 0zM1334.37 362.5 a3.13 3.13 0 1 0 6.26 0 a3.13 3.13 0 1 0 -6.26 0zM1184.37 362.5 a3.13 3.13 0 1 0 6.26 0 a3.13 3.13 0 1 0 -6.26 0zM784.37 337.5 a3.13 3.13 0 1 0 6.26 0 a3.13 3.13 0 1 0 -6.26 0zM1034.37 387.5 a3.13 3.13 0 1 0 6.26 0 a3.13 3.13 0 1 0 -6.26 0zM1109.37 387.5 a3.13 3.13 0 1 0 6.26 0 a3.13 3.13 0 1 0 -6.26 0zM884.37 412.5 a3.13 3.13 0 1 0 6.26 0 a3.13 3.13 0 1 0 -6.26 0z" fill="black"></path><path d="M934.37 162.5 a3.13 3.13 0 1 0 6.26 0 a3.13 3.13 0 1 0 -6.26 0z" fill="black"></path><path d="M1009.37 437.5 a3.13 3.13 0 1 0 6.26 0 a3.13 3.13 0 1 0 -6.26 0zM1109.37 462.5 a3.13 3.13 0 1 0 6.26 0 a3.13 3.13 0 1 0 -6.26 0zM1284.37 487.5 a3.13 3.13 0 1 0 6.26 0 a3.13 3.13 0 1 0 -6.26 0zM1334.37 487.5 a3.13 3.13 0 1 0 6.26 0 a3.13 3.13 0 1 0 -6.26 0zM1184.37 437.5 a3.13 3.13 0 1 0 6.26 0 a3.13 3.13 0 1 0 -6.26 0z" fill="black"></path><path d="M859.37 112.5 a3.13 3.13 0 1 0 6.26 0 a3.13 3.13 0 1 0 -6.26 0zM1184.37 112.5 a3.13 3.13 0 1 0 6.26 0 a3.13 3.13 0 1 0 -6.26 0zM884.37 87.5 a3.13 3.13 0 1 0 6.26 0 a3.13 3.13 0 1 0 -6.26 0zM984.37 112.5 a3.13 3.13 0 1 0 6.26 0 a3.13 3.13 0 1 0 -6.26 0zM1009.37 87.5 a3.13 3.13 0 1 0 6.26 0 a3.13 3.13 0 1 0 -6.26 0zM1359.37 137.5 a3.13 3.13 0 1 0 6.26 0 a3.13 3.13 0 1 0 -6.26 0zM1334.37 87.5 a3.13 3.13 0 1 0 6.26 0 a3.13 3.13 0 1 0 -6.26 0z" fill="black"></path></mask></defs></svg>