<svg xmlns="http://www.w3.org/2000/svg" version="1.1" xmlns:xlink="http://www.w3.org/1999/xlink" xmlns:svgjs="http://svgjs.com/svgjs" width="1440" height="560" preserveAspectRatio="none" viewBox="0 0 1440 560"><g mask="url(&quot;#SvgjsMask1030&quot;)" fill="none"><circle r="6.92" cx="250.23" cy="25.54" filter="url(#SvgjsFilter1031)" fill="rgba(132, 177, 226, 0.43)"></circle><circle r="6.71" cx="537.48" cy="247.96" filter="url(#SvgjsFilter1031)" fill="rgba(187, 189, 214, 0.41)"></circle><circle r="7.65" cx="1070.0800000000002" cy="113.45" filter="url(#SvgjsFilter1031)" fill="rgba(132, 177, 226, 0.43)"></circle><circle r="7.49" cx="836.52" cy="448.23" filter="url(#SvgjsFilter1031)" fill="rgba(187, 189, 214, 0.41)"></circle><circle r="8.61" cx="32.64" cy="253.77999999999997" filter="url(#SvgjsFilter1031)" fill="rgba(187, 189, 214, 0.41)"></circle><circle r="7.48" cx="1033.39" cy="322.07" filter="url(#SvgjsFilter1031)" fill="rgba(132, 177, 226, 0.43)"></circle><circle r="5.58" cx="577.0600000000001" cy="170.29000000000002" filter="url(#SvgjsFilter1031)" fill="rgba(132, 177, 226, 0.43)"></circle><circle r="7.285" cx="1056.885" cy="144.755" filter="url(#SvgjsFilter1031)" fill="rgba(132, 177, 226, 0.43)"></circle><circle r="7.38" cx="882.98" cy="457.98" filter="url(#SvgjsFilter1031)" fill="rgba(132, 177, 226, 0.43)"></circle><circle r="8.545" cx="398.005" cy="67.645" filter="url(#SvgjsFilter1031)" fill="rgba(187, 189, 214, 0.41)"></circle><circle r="7.58" cx="514.84" cy="396.19" filter="url(#SvgjsFilter1031)" fill="rgba(187, 189, 214, 0.41)"></circle><circle r="6.015" cx="711.135" cy="151.885" filter="url(#SvgjsFilter1031)" fill="rgba(187, 189, 214, 0.41)"></circle><circle r="8.43" cx="336.15000000000003" cy="79.19" filter="url(#SvgjsFilter1031)" fill="rgba(132, 177, 226, 0.43)"></circle><circle r="9.18" cx="144.49" cy="409.67" filter="url(#SvgjsFilter1031)" fill="rgba(187, 189, 214, 0.41)"></circle><circle r="5.535" cx="1224.9750000000001" cy="22.395" filter="url(#SvgjsFilter1031)" fill="rgba(187, 189, 214, 0.41)"></circle><circle r="8.175" cx="437.15500000000003" cy="459.915" filter="url(#SvgjsFilter1031)" fill="rgba(187, 189, 214, 0.41)"></circle><circle r="6.965" cx="310.61499999999995" cy="314.67499999999995" filter="url(#SvgjsFilter1031)" fill="rgba(187, 189, 214, 0.41)"></circle><circle r="8.085" cx="485.86499999999995" cy="394.185" filter="url(#SvgjsFilter1031)" fill="rgba(132, 177, 226, 0.43)"></circle><circle r="4.755" cx="606.445" cy="404.665" filter="url(#SvgjsFilter1031)" fill="rgba(132, 177, 226, 0.43)"></circle><circle r="5.715" cx="1017.955" cy="233.375" filter="url(#SvgjsFilter1031)" fill="rgba(187, 189, 214, 0.41)"></circle><path d="M501 219.8L455.5 247.2 409.7 235.5 442.7 201.6 495.8 201.3C495.8 201.3 496.4 201.2 496.4 201.2 497.7 200.8 498.6 199.2 498.8 197.8 498.9 195.8 497.2 194.3 495.3 194.8L448.9 195.2 464.9 178.8 485.4 178.3C485.4 178.3 486 178.2 486 178.2 487.2 177.8 488.1 176.2 488.4 174.8 488.5 172.8 486.7 171.3 484.9 171.8L470.9 171.8 482.8 159.8C483.9 158.8 483.8 156.2 482.9 155.1 481.7 153.4 479.3 154.1 478.2 155.1L466.3 167.1 466.3 153.1C466.4 151.1 464.7 149.6 462.8 150.1 460.8 150 459.3 151.8 459.8 153.6L460.3 174.1 444.1 189.9 443.7 143.5C443.8 141.5 442 140 440.2 140.5 438.2 140.4 436.7 142.1 437.2 144L437.5 197.1 404.4 231 391.5 184.7 417.6 138.2C418.5 136.6 418 134.8 416.4 133.9 414.8 133 413 133.5 412.1 135.1L389 176.1 382.8 153.9 392.6 136.6C393.5 135 392.9 133.1 391.4 132.3 389.8 131.4 387.9 131.9 387 133.5L380.4 145.3 375.6 128.1C375.7 126 373.5 125.3 371.6 125.8 369.8 126.4 368.9 127.9 369.4 129.8L373.9 145.8 362.1 139.2C360.5 138.3 358.6 138.8 357.7 140.4S357.4 143.8 358.9 144.7L376.3 154.4 382.5 176.6 341.5 153.6C339.9 152.7 338.1 153.2 337.2 154.8 336.3 156.3 336.8 158.2 338.4 159.1L384.9 185.2 397.7 230.8 351.9 219.1 325.5 174.7C324.3 173 322.3 172.9 320.5 173.4 318.8 174.5 318.7 176.6 319.2 178.4L343 218.3 320.8 212.5 310.5 194.8C309.4 193.1 307.4 193 305.5 193.6 303.8 194.7 303.8 196.7 304.1 198L311.4 209.9 295 205.8C293.6 205.5 291.1 206.2 291 208.3 290.9 210.3 291.5 212.1 293.5 212.2L309.9 216.3 298 223.6C296.3 224.7 296.2 226.7 296.6 228 297.5 229 299.1 229.9 300.3 229.6 300.3 229.6 301 229.4 301 229.4L318.7 219.1 340.9 224.9 301 248.7C299.4 249.8 299.3 251.8 299.6 253 300.6 254.1 302.2 255 303.4 254.6 303.4 254.6 304 254.5 304 254.5L349.5 227.1 395.3 238.8 362.3 272.7 309.2 273C307.2 272.9 305.7 274.6 306.2 276.5 306.1 278.5 307.8 280 309.7 279.5L356.1 279.1 340.1 295.5 319.6 296C317.6 295.9 316.1 297.6 316.6 299.5 316.5 301.5 318.3 303 320.1 302.5L334.1 302.5 322.2 314.5C321.1 315.5 321.2 318.1 322.2 319.2 323.1 320.2 324.5 320.5 325.8 320.2 326.4 320 327 319.8 327.4 319L339.4 307 339.3 321C339.2 323 340.9 324.5 342.8 324 342.8 324 343.4 323.9 343.4 323.9 344.6 323.5 345.5 321.9 345.8 320.5L345.4 300 361.4 283.6 361.7 330C361.7 332 363.4 333.5 365.3 333 365.3 333 365.9 332.8 365.9 332.8 367.1 332.5 368 330.9 368.3 329.5L368 276.4 401 242.5 413.8 288.1 387.7 334.7C386.8 336.3 387.3 338.1 388.9 339 390.4 339.9 392.3 339.4 393.2 337.8L416.4 297.4 422.6 319.6 412.9 336.9C412 338.5 412.5 340.4 414.1 341.2S417.5 341.6 418.4 340L425.1 328.2 429.5 344.2C430.1 346.1 431.6 347 433.5 346.4 435.3 345.9 436.2 344.3 435.7 342.5L431.2 326.5 443.1 333.1C443.8 333.6 444.6 334 445.9 333.7S447.5 332.5 448 331.7C448.9 330.2 448.3 328.3 446.8 327.4L429.4 317.7 423.2 295.5 464.2 318.5C465 319 465.8 319.4 467 319.1 467.6 318.9 468.7 317.9 469.2 317.2 470 315.6 469.5 313.7 467.9 312.8L421.4 286.7 408.6 241.1 454.4 252.8 481.8 298.3C482.8 299.4 484.4 300.3 485.6 299.9 485.6 299.9 486.2 299.7 486.2 299.7 487.9 298.6 488 296.6 487.6 295.4L463.8 255.5 486 261.2 496.3 279C497.3 280 498.9 280.9 500.1 280.6 500.1 280.6 500.7 280.4 500.7 280.4 502.4 279.3 502.5 277.2 502.1 276L494.8 264.1 511.2 268.1C511.8 268 512.6 268.4 513.3 268.2 514.5 267.9 515.5 266.9 515.8 265.5 515.9 263.5 515.4 261.6 513.4 261.5L497 257.5 508.9 250.2C510.5 249.1 510.6 247 510.3 245.8 509.1 244.1 507.1 244 505.9 244.4L488.2 254.7 466 248.9 505.8 225.1C507.5 224 507.6 222 507.2 220.7 504.9 219.4 502.7 218.7 501 219.8Z" fill="rgba(132, 177, 226, 0.43)"></path><path d="M728.6 457.8L736.9 469.1 728.6 470.4C727.7 470.4 726.9 471.4 726.8 472.7 727.2 473.7 728.2 474.5 729.2 474.1L739.7 472.8 746.6 481.3 724.7 483.9C723.7 484.4 722.8 485.3 722.9 486.2 723.2 487.6 724.1 488.5 725.2 488L749.4 485 759.5 498.3 740.3 498.6 753.7 512.3 737.1 514.6 722.1 495.4C722.3 495 721.9 494.9 721.5 494.7 720.8 494.4 719.9 494.5 719.2 495.1 718.6 495.7 718.5 496.9 718.9 498L732.5 515.3 721.7 516.4 715.2 508.1C714.9 507.6 714.6 507.4 714.2 507.3 713.8 507.1 712.9 507.2 712.3 507.8 711.6 508.4 711.5 509.6 712.1 510.3L717.1 517.1 703.2 519.2C702 519.1 701.5 520.2 701.4 521.5 701.5 522.4 702.4 523.2 703.8 522.9L717.5 521.2 714.3 529C713.9 530.1 714.7 531.3 715.4 531.6 716.5 532 717.6 531.6 718 530.5L722.1 520.5 733 519.4 724.7 539.3C724.3 540.5 724.7 541.5 725.8 542 726.6 542.3 728 542 728.4 540.9L737.6 518.7 754.1 516.4 745.1 533 763.4 528.5 757 544 733.2 547.2C731.8 547.4 731.3 548.6 731.4 549.4 731.4 550.3 732.4 551.2 733.7 551.3L755.3 548.1 751.2 558.1 740.6 559.7C739.3 559.6 738.5 560.6 738.7 562 738.8 562.9 739.8 563.7 741.2 563.5L749.4 562.5 744 575.4C743.5 576.6 744 577.6 745.1 578.1S747.2 578.1 747.7 577L753.1 564 758.2 570.5C759 571.7 760.2 571.8 760.9 571.2 762.1 570.4 762.2 569.1 761.3 568.3L754.9 559.6 759 549.6 772.1 567.2C773.1 568 774.3 568.1 775 567.5 776.2 566.7 776.3 565.4 775.3 564.6L760.7 545.6 767.1 530 776.9 546.2 782.2 528.1 792.3 541.3 783.1 563.5C782.7 564.6 783.5 565.8 784.2 566.1 785.3 566.6 786.4 566.1 786.8 565L795.3 544.7 802 553.5 797.9 563.5C797.4 564.6 797.8 565.7 798.9 566.1 799.7 566.4 801.1 566.2 801.5 565.1L804.8 557.3 813.2 568.2C814.1 569.4 815.3 569.4 816.1 568.5 816.8 567.9 817.3 566.8 816.3 566L808 554.7 816.3 553.4C817.2 553.3 818 552.4 818 551.5 817.9 550.6 817.3 549.9 817 549.8 816.6 549.6 816.2 549.5 815.7 549.7L805.2 551 798.3 542.5 820.2 539.9C821.2 539.4 822.1 538.5 822 537.6 821.9 536.7 821.4 536 820.6 535.7 820.2 535.6 820.2 535.6 819.7 535.8L795.5 538.8 785.4 525.5 804.6 525.2 791.3 511.4 807.8 509.2 822.8 528.4C823.4 529.1 824.5 529.5 825.7 528.7 826.3 528.1 826.4 526.9 826 525.8L812.4 508.5 823.2 507.4 829.8 515.7C830.2 516.7 831.5 516.8 832.7 516 833.3 515.4 833.4 514.2 833 513.1L827.9 506.7 841.7 504.6C843 504.7 843.4 503.6 843.5 502.3 843.3 501.8 842.7 501.1 842.3 501 842 500.8 841.6 500.7 841.1 500.9L827.4 502.6 830.6 494.8C831.1 493.7 830.3 492.5 829.5 492.2L829.5 492.2C828.4 491.7 827.4 492.2 826.9 493.3L822.8 503.3 811.9 504.4 820.2 484.4C820.6 483.3 820.2 482.3 819.1 481.8S816.9 481.8 816.5 482.9L807.3 505.1 790.8 507.4 799.8 490.7 781.5 495.3 787.9 479.8 811.7 476.6C813.1 476.3 813.6 475.2 813.5 474.3 813.5 473.4 812.5 472.6 811.2 472.5L789.7 475.3 793.7 465.7 804.4 464.1C805.6 464.1 806.5 463.2 806.2 461.8 806.1 460.9 805.2 460.1 803.9 460L795.6 461.3 800.9 448.3C801.4 447.2 800.9 446.2 799.8 445.7S797.7 445.7 797.2 446.8L791.9 459.8 786.7 453.3C786.5 452.8 786.1 452.6 785.8 452.5 785 452.2 784.5 452.4 784 452.6 782.8 453.4 782.7 454.7 783.7 455.5L790 464.2 785.9 474.2 772.8 456.6C772.4 456.5 772.1 456.3 771.7 456.2 771 455.9 770.4 456.1 769.9 456.3 768.7 457.1 768.6 458.4 769.6 459.2L784.2 478.2 777.8 493.8 768 477.6 762.7 495.7 752.6 482.5 761.8 460.3C762.2 459.2 761.4 458 760.7 457.7 759.6 457.2 758.5 457.7 758.1 458.8L749.8 478.7 742.9 470.2 747.1 460.3C747.5 459.2 747.1 458.1 746 457.7S743.8 457.6 743.4 458.7L740.2 466.5 731.7 455.6C731.4 455.1 731.1 455 730.7 454.8 730.3 454.7 729.4 454.7 728.8 455.3 728.1 455.9 727.6 457 728.6 457.8ZM769.3 487.2L777.2 500.4 792.2 496.7 784.7 510.5 795.4 521.4 780 521.9 775.7 536.6 767.7 523.4 752.7 527.1 760 513.7 749.5 502.4 764.8 502.2 769.3 487.2Z" fill="rgba(132, 177, 226, 0.43)"></path><path d="M1387 202.9L1403.8 237.3 1399 250.5 1393.3 238.8C1393.1 237.4 1391.6 237.2 1390.1 237.5 1389.3 238.1 1388.6 239.7 1389.3 240.6L1396.7 256.8 1392.4 269.8 1383.5 259.3 1385 241.4C1385 241.4 1384.9 240.9 1384.9 240.9 1384.8 240 1383.6 239.2 1382.6 238.9 1381.2 239.2 1380.3 239.8 1380.1 241.3L1379.2 254.2 1370.3 243.7 1372.9 205.6C1372.9 205.6 1373.2 205 1373.2 205 1373.1 204.1 1371.9 203.3 1370.9 203 1369.4 202.8 1368.2 204 1368.4 205.5L1365.9 238.7 1354.8 226.1 1355.9 211.3C1355.9 211.3 1355.9 211.3 1355.8 210.8 1355.6 209.9 1354.9 209 1353.9 208.7 1352.5 209 1351.2 209.7 1351 211.2L1350.4 221.1 1342.3 211.9C1341.5 210.6 1340.1 210.8 1339.3 211.5 1338 212.2 1337.8 213.7 1339 215L1346.6 224.3 1337.1 223.1C1335.7 223.4 1334.4 224.2 1334.6 225.6 1334.4 227.1 1335.1 227.9 1336.6 228.1L1351.4 229.2 1362.1 241.8 1328.5 239.4C1327.4 239.1 1326.2 240.4 1326 241.9 1326.2 242.8 1326.9 244.1 1328.4 244.3L1366.5 246.9 1375.4 257.4 1362.5 256.4C1361 256.2 1360.2 257.3 1360 258.9 1359.7 259.9 1360.9 261.1 1362 261.4L1379.7 262.4 1389.1 272.9 1375.4 275.5 1360.8 265.5C1359.7 264.8 1358.3 265 1357.5 266.2 1356.6 266.8 1357 268.7 1358.1 269.5L1368.8 276.7 1355.1 279.3 1323.6 257.5C1322.5 256.7 1321.1 257 1320.3 258.1 1319.5 259.2 1319.8 260.6 1320.9 261.4L1348.5 280.6 1332.5 283.6 1320.1 275.2C1319 274.5 1317.6 274.7 1316.8 275.9 1316.1 277 1316.3 278.4 1317.4 279.2L1325.4 285 1313.6 287.2C1312.2 287.5 1311.4 288.6 1311.7 290 1312 291.4 1313.1 292.2 1314.5 291.9L1326.3 289.7 1320.9 297.5C1320.2 298.7 1320.4 300.1 1321.6 300.8S1324.1 301.3 1324.9 300.2L1332.9 288.4 1349.4 285.3 1330.7 312.8C1329.9 313.9 1330.2 315.3 1331.3 316.1 1332.4 316.9 1333.8 316.6 1334.6 315.5L1356 284 1369.7 281.4 1362.4 292.1C1361.7 293.2 1361.9 294.6 1363 295.4 1364.2 296.2 1365.6 295.9 1366.3 294.8L1376.3 280.2 1389.5 277.7 1385 290.3 1368.9 298.2C1368.1 298.8 1367.4 300.4 1368.1 301.3 1368.8 302.6 1369.8 302.9 1371.3 302.6L1382.9 297 1378.4 309.6 1344 326.4C1342.7 327.1 1342.4 328.2 1342.7 329.6 1343.4 330.9 1344.9 331.1 1345.9 330.9L1376.3 316.3 1370.5 332.1 1357.5 338.5C1356.1 338.7 1355.9 340.2 1356.2 341.7 1356.9 342.5 1358.4 343.2 1359.8 342.4L1368.3 338.4 1364.6 349.8C1363.8 351 1364.6 352.3 1366.2 353 1367.2 353.2 1368.5 352.5 1368.8 351.5L1373 339.9 1377.1 348.9C1377.9 350.2 1379.4 350.4 1380.2 349.8 1381.6 349.5 1381.9 348.5 1381.7 347.6 1381.7 347.1 1381.7 347.1 1381.6 346.6L1375.2 333.7 1381 317.9 1395.5 347.9C1395.8 349.3 1397.3 349.5 1398.7 349.2 1399.5 348.6 1399.8 347.5 1399.6 346.6 1399.6 346.1 1399.6 346.1 1399.6 346.1L1383.1 311.1 1387.6 298.6 1393.2 310.2C1394 311.5 1395 311.8 1396.4 311.5 1397.3 310.9 1398 309.8 1397.8 308.8 1397.8 308.4 1397.8 308.4 1397.7 307.9L1389.7 291.8 1394.2 279.2 1402.9 289.3 1401.9 307.1C1401.7 308.6 1402.9 309.8 1403.9 310.1 1405.4 309.8 1406.7 309.1 1406.4 307.7L1407.4 294.8 1416.6 304.8 1413.7 343.4C1413.4 344.5 1414.6 345.7 1415.7 346 1417.1 345.7 1418.4 345 1418.6 343.5L1421.1 310.3 1431.8 322.9 1430.6 337.3C1430.4 338.8 1431.6 340 1433 339.8 1434.1 340.1 1435.4 339.3 1435.6 337.8L1436.2 327.9 1444.3 337.1C1444.9 338 1446.4 338.2 1447.7 337.5 1448.1 336.9 1448.4 335.9 1448.2 334.9 1448.2 334.9 1448.2 334.4 1448.1 334L1440 324.8 1449.8 325.3C1450.9 325.6 1452.1 324.4 1452.4 323.4 1452.3 322.9 1452.3 322.9 1452.3 322.9 1452 321.5 1450.9 320.7 1450 320.9L1435.6 319.7 1424.4 307.2 1458.1 309.6C1459.5 309.3 1460.4 308.7 1460.6 307.2 1460.6 307.2 1460.5 306.7 1460.5 306.7 1460.3 305.8 1459.6 304.9 1458.1 304.7L1419.9 301.7 1411.2 291.6 1424.1 292.6C1425.5 292.3 1426.8 291.6 1426.5 290.2 1427 290.1 1426.9 289.6 1426.9 289.6 1426.7 288.7 1425.6 287.9 1424.6 287.6L1406.8 286.6 1398 276.1 1411.2 273.6 1425.8 283.5C1426.9 284.3 1428.8 283.9 1429.5 282.8 1429.8 281.7 1429.6 280.3 1428.9 279.5L1417.8 272.3 1431.5 269.7 1462.9 291.1C1464 291.9 1465.4 291.6 1466.2 290.5 1466.9 289.3 1466.7 287.9 1465.5 287.2L1438.1 268.5 1454.6 265.3 1466.3 273.3C1467.5 274.1 1468.9 273.8 1469.6 272.7S1470.1 270.2 1469 269.4L1461.2 264.1 1472.9 261.8C1474.4 261.6 1475.1 260.4 1474.9 259 1474.6 257.6 1473.5 256.8 1472.1 257.1L1460.3 259.3 1465.5 251C1465.9 250.5 1466.3 249.9 1466.2 249.4 1466.1 249 1465.5 248.1 1464.9 247.7 1463.8 247 1462.4 247.2 1461.6 248.3L1453.7 260.6 1437.2 263.7 1455.8 235.8C1456.2 235.2 1456.5 234.6 1456.5 234.2 1456.4 233.7 1455.7 232.8 1455.2 232.5 1454 231.7 1452.6 232 1451.9 233.1L1430.6 265 1416.9 267.6 1424.6 256.8C1425 256.3 1424.8 255.3 1424.7 254.9 1424.6 254.4 1424.5 253.9 1424 253.5 1422.9 252.8 1421 253.1 1420.7 254.2L1410.3 268.8 1397.1 271.4 1401.4 258.3 1417.6 250.8C1418.5 250.2 1419.2 249.1 1419 248.1 1419 247.7 1419 247.7 1418.5 247.7 1418.2 246.3 1416.6 245.7 1415.3 246.4L1403.7 252 1408 239 1443 222.6C1443.9 221.9 1444.2 220.9 1444 219.9 1443.9 219.5 1443.9 219.5 1443.9 219.5 1443.1 218.1 1442 217.4 1440.7 218.1L1410.2 232.7 1416 216.9 1429 210.6C1430.3 209.8 1430.6 208.8 1430.4 207.8 1430.4 207.8 1430.4 207.4 1430.4 207.4 1429.6 206 1428.1 205.8 1427.2 206L1418.3 210.6 1422.4 199.1C1422.3 198.6 1422.3 198.2 1422.2 197.7 1422.1 197.2 1421.4 196.4 1420.9 196 1419.4 195.8 1417.9 196.1 1417.7 197.6L1413.6 209.1 1409.4 200.1C1408.7 198.8 1407.2 198.6 1406.2 198.8 1404.9 199.5 1404.7 201 1405 202.4L1411.4 215.4 1406 231.1 1391.5 201.1C1390.8 199.7 1389.2 199.1 1388.3 199.7 1387 200.5 1386.3 201.6 1387 202.9Z" fill="rgba(187, 189, 214, 0.41)"></path><path d="M1091.9 372.5L1088 350.5 1100.9 354.6C1102.2 355.1 1104.1 354.3 1105.1 352.6 1105.3 350.8 1104.5 348.9 1102.7 348.8L1086.7 343.1 1083 326 1116.2 338C1118 338.1 1119.8 337.3 1120.4 336 1121 333.8 1120.2 331.9 1118.4 331.8L1081.7 318.7 1076.8 292.5 1104.4 305.8 1095.2 276.6 1120.4 285.2 1128.1 323.4C1127.6 323.8 1128 324.3 1128.4 324.8 1129.3 325.7 1130.6 326.3 1132 325.9 1133.4 325.6 1134.4 323.8 1134.5 322L1127.5 287.5 1143.8 293.7 1147.2 310.2C1147.1 311.1 1147.5 311.6 1148 312.1 1148.4 312.6 1149.7 313.1 1151.1 312.8 1152.5 312.4 1153.5 310.7 1153.1 309.3L1150.9 296 1172.2 303C1173.9 304 1175.4 302.7 1176.4 301 1177 299.7 1176.2 297.8 1174 297.2L1153.2 289.8 1163.3 281C1164.8 279.7 1164.5 277.5 1163.7 276.5 1162.4 275 1160.6 274.9 1159.2 276.2L1146.1 287.5 1129.8 281.3 1155.9 258.7C1157.3 257.4 1157.5 255.6 1156.2 254.2 1155.4 253.2 1153.1 252.6 1151.7 253.8L1122.7 279 1097.4 270.4 1122.3 253.1 1092.8 246.4 1113.1 228.8 1149.4 241.4C1151.6 242 1153.1 240.8 1153.6 239.5 1154.2 238.1 1153.4 236.3 1151.7 235.2L1118.4 224.2 1131.5 212.9 1147.9 218.2C1149.6 219.2 1151.5 218.4 1152.1 216.2 1152.7 214.9 1151.9 213 1149.7 212.4L1137.3 207.9 1154.2 193.2C1155.7 192 1155.8 190.2 1154.6 188.7S1151.5 187.1 1150 188.4L1133.1 203.1 1130.4 190.2C1130.1 187.9 1128.4 186.8 1127 187.2 1124.7 187.5 1123.7 189.2 1124.4 191.1L1127.3 208.1 1114.2 219.4 1108.1 184.9C1107.3 183.1 1105.6 182 1104.2 182.4 1101.9 182.7 1100.9 184.4 1101.6 186.3L1108.9 224 1088.6 241.6 1086.2 211.5 1065.6 233.6 1060.7 207.4 1089.7 182.2C1091.1 181 1090.8 178.7 1090 177.7 1088.8 176.3 1086.9 176.1 1085.5 177.4L1058.9 200.4 1055.6 183 1068.7 171.7C1070.1 170.4 1070.2 168.6 1069 167.1 1068.2 166.2 1065.9 165.6 1064.5 166.8L1054.3 175.6 1050 154C1049.7 151.7 1047.9 150.7 1046.1 151.4 1044.7 151.8 1043.2 153 1044 154.9L1047.9 177 1035 172.9C1033.7 172.3 1031.8 173.1 1031.3 174.4 1030.7 175.7 1031.1 177.1 1031.5 177.6 1031.9 178.1 1032.3 178.6 1033.2 178.6L1049.2 184.3 1052.9 201.4 1019.7 189.5C1017.9 189.3 1016.1 190.1 1015.5 191.4 1015 192.8 1015.3 194.1 1016.2 195.1 1016.6 195.6 1016.6 195.6 1017.5 195.7L1054.2 208.7 1059.1 234.9 1031.5 221.6 1040.7 250.9 1015.5 242.2 1007.8 204C1007.5 202.6 1006.2 201.2 1003.9 201.5 1002.5 201.8 1001.5 203.6 1001.4 205.4L1008.4 239.9 992.1 233.8 988.7 217.2C988.8 215.4 987.1 214.3 984.8 214.6 983.4 215 982.4 216.7 982.3 218.5L985 231.4 963.7 224.5C962 223.4 960.5 224.7 959.5 226.4 959.4 227.3 959.8 228.7 960.2 229.2 960.6 229.7 961 230.2 961.9 230.2L982.7 237.6 972.6 246.4C971.1 247.7 971.4 250 972.2 250.9L972.2 250.9C973.5 252.4 975.3 252.5 976.7 251.3L989.8 239.9 1006.1 246.1 980 268.7C978.6 270 978.4 271.8 979.7 273.2S982.8 274.8 984.2 273.6L1013.2 248.4 1038.5 257.1 1013.6 274.3 1043.1 281 1022.8 298.6 986.5 286C984.3 285.4 982.8 286.6 982.3 288 981.7 289.3 982.5 291.1 984.2 292.2L1017 303.6 1004.4 314.5 988 309.2C986.3 308.2 984.4 309 983.8 311.2 983.2 312.5 984 314.4 985.7 315.4L998.6 319.5 981.7 334.2C980.2 335.4 980.1 337.3 981.3 338.7S984.4 340.3 985.9 339L1002.8 324.4 1005.5 337.3C1005.4 338.2 1005.9 338.6 1006.3 339.1 1007.1 340.1 1008 340.2 1008.9 340.2 1011.2 339.9 1012.2 338.2 1011.5 336.3L1008.6 319.3 1021.7 308 1027.8 342.5C1028.2 343 1028.6 343.5 1029.1 343.9 1029.9 344.9 1030.8 345 1031.7 345 1034 344.8 1035 343 1034.3 341.1L1027 303.4 1047.3 285.8 1049.7 315.9 1070.3 293.8 1075.2 320 1046.2 345.2C1044.8 346.4 1045.1 348.7 1045.9 349.7 1047.1 351.1 1049 351.3 1050.4 350L1076.5 327.4 1080.3 344.5 1067.2 355.8C1065.8 357 1065.7 358.8 1066.9 360.3S1070 361.9 1071.4 360.6L1081.6 351.8 1085.9 373.4C1085.9 374.3 1086.3 374.8 1086.7 375.3 1087.1 375.8 1088.4 376.3 1089.8 376 1091.2 375.6 1092.7 374.4 1091.9 372.5ZM1054.8 301.3L1053 276.7 1028.8 271.3 1049.4 256.9 1042 233.7 1064.4 243.9 1081.1 226.1 1082.9 250.7 1107.1 256.1 1087 270.1 1093.9 293.7 1072 283.1 1054.8 301.3Z" fill="rgba(132, 177, 226, 0.43)"></path><path d="M1147.7 451.9L1169.3 476.9 1168.9 486 1150.6 495 1142.8 490 1136.5 457.4C1136.4 457 1136.4 457 1136.2 456.7 1135.8 455.9 1135.1 455.4 1133.9 455.6 1132.8 456.1 1132.3 456.8 1132.4 458.1L1138 486.5 1126 478.6 1123.4 466.1C1123.4 466.1 1123.3 465.7 1123.3 465.7 1122.9 465 1122.2 464.5 1120.9 464.6 1120 464.6 1119.3 465.9 1119.5 467.1L1120.9 475.4 1112.1 469.4C1111.4 468.9 1110.2 469 1109.3 469.9S1109.1 472.3 1110 473.2L1118.5 478.7 1110.5 480.5C1109.2 480.7 1108.5 481.9 1108.7 483.2 1109 483.9 1109.9 484.8 1111.2 484.6L1123.7 482 1135.8 490.3 1107.3 495.9C1106.1 496 1105.4 497.3 1105.4 498.2 1105.9 499.2 1106.8 500.1 1108 500L1140.5 493.4 1148.5 498.8 1147.1 518.6 1138.5 522.9 1107.1 512.5C1106 512.1 1104.9 512.7 1104.6 513.7S1104.7 515.9 1105.8 516.2L1133.5 525.3 1120.2 531.9 1108.4 527.9C1107.4 527.5 1106.3 528.1 1105.6 529.3S1105.7 531.4 1106.8 531.8L1115.2 534.4 1105.5 539.1C1104.4 539.7 1104.2 541.1 1104.8 542.2 1105.3 543.3 1106.4 543.6 1107.4 543.1L1117.1 538.3 1114.4 546.3C1113.7 547.6 1114.2 548.7 1115.6 548.9 1116.7 549.2 1117.8 548.7 1118.2 547.6L1122.2 535.8 1135.4 529.3 1125.8 556.8C1125.4 557.9 1126.1 559.3 1127.2 559.7S1129.4 559.5 1129.7 558.4L1140.5 526.8 1149.1 522.6 1165.8 533.9 1165 543.2 1140.1 564.9C1139.2 565.8 1139.3 567.1 1139.9 568.1 1140.8 569 1142 568.9 1143.1 568.3L1164.8 549.1 1163.9 563.4 1154.2 571.8C1153.3 572.7 1153.4 573.9 1154 575 1154.7 575.5 1156.1 575.7 1157 574.8L1163.3 569.5 1162.7 580.1C1162.7 581 1163.6 581.9 1164.7 582.2 1165.9 582 1166.8 581.2 1166.8 580.3L1167.4 569.7 1173.3 576.2C1174 576.7 1175.4 576.9 1176 576.2 1177 575.7 1177 574.8 1176.5 573.7 1176.5 573.7 1176.3 573.3 1176.3 573.3L1168 563.6 1169 549.3 1188.2 571.1C1189 572 1190.1 572.3 1191 571.5 1191.9 570.6 1191.9 569.7 1191.6 569 1191.4 568.6 1191.4 568.6 1191.4 568.6L1169.2 543.4 1169.9 534.1 1188.2 525.1 1195.7 530.3 1202.5 563.1C1202.5 564 1203.7 564.7 1204.6 564.7 1205.9 564.6 1206.6 563.3 1206.4 562.1L1200.9 533.6 1212.8 541.5 1215.4 554.1C1215.6 555.3 1216.5 556.2 1217.6 555.7 1218.8 555.5 1219.5 554.3 1219.6 553.4L1217.6 544.9 1226.4 550.9C1227.4 551.3 1228.7 551.1 1229.6 550.2 1229.8 549.7 1229.8 548.8 1229.4 548 1229.2 547.7 1229.2 547.7 1228.7 547.5L1220 541.6 1228.4 539.6C1229.6 539.5 1230 538.4 1230 537.5 1229.8 537.1 1229.8 537.1 1229.7 536.8 1229.3 536.1 1228.6 535.5 1227.7 535.5L1215.2 538.1 1203.2 530.2 1231.7 524.6C1232.8 524.1 1233.7 523.2 1233.1 522.1 1233.3 521.6 1233.3 521.6 1233.1 521.2 1232.8 520.5 1231.7 520.2 1230.8 520.2L1198.1 526.9 1190.6 521.7 1191.8 501.5 1200 497.4 1231.6 508.2C1232.7 508.5 1234.1 507.8 1234.5 506.8S1234.1 504.2 1233.1 503.9L1205.4 494.8 1218.3 488.4 1230.4 492.2C1231.5 492.6 1232.6 492.1 1233 491 1233.3 489.9 1232.8 488.9 1231.7 488.5L1223.7 485.8 1233.4 481C1234.1 480.6 1234.8 479.4 1234.3 478.3 1233.7 477.2 1232.1 476.7 1231.4 477L1221.7 481.8 1224.5 473.8C1224.6 473.2 1224.8 472.7 1224.7 472.4 1224.3 471.6 1223.8 471.5 1223.2 471.3 1222.2 470.9 1221.1 471.4 1220.7 472.5L1216.4 484.5 1203.4 490.8 1213.1 463.3C1213.3 462.8 1213.1 462.5 1212.7 461.7 1212.5 461.4 1212.4 461 1211.8 460.8 1210.8 460.5 1209.3 461.2 1209 462.3L1198.1 493.5 1189.8 497.6 1173.2 486.6 1173.5 477.1 1198.8 455.2C1199.3 454.5 1199.7 453.4 1199.4 452.7 1199.2 452.4 1199.2 452.4 1198.8 452.5 1198.3 451.5 1196.9 451.3 1196 452.2L1174.2 471.4 1175 456.7 1184.7 448.3C1185.3 447.6 1185.3 446.7 1184.9 446 1184.9 446 1184.7 445.7 1184.7 445.7 1184.2 444.6 1182.8 444.4 1181.9 445.3L1175.4 451.2 1176 440.6C1176.2 440.1 1176 439.7 1175.8 439.3 1175.5 438.6 1174.8 438.1 1174.4 438.3 1173 438.1 1172.1 439 1171.7 440L1171.1 450.6 1165.8 444.3C1164.9 443.4 1163.5 443.2 1162.6 444.1 1162 444.8 1161.8 446.2 1162.5 446.8L1170.9 456.5 1169.9 470.8 1150.7 449C1149.8 448.2 1148.6 448.3 1147.5 448.9 1147 449.6 1146.8 451 1147.7 451.9ZM1154.7 497.9L1168.7 491 1170.9 489.9 1172.8 491.2 1185.5 499.7 1187.6 501.3 1187.4 503.6 1186.5 518.8 1186.3 521.2 1184.1 522.2 1170.1 529.1 1168 530.2 1166 528.9 1153.4 520.4 1151.4 519.2 1151.4 516.5 1152.4 501.3 1152.6 499 1154.7 497.9Z" fill="rgba(132, 177, 226, 0.43)"></path><path d="M628.7 463L588.9 462.1 564.6 436.2 599.1 428.1 632.8 449.2C632.8 449.2 633.3 449.4 633.3 449.4 634.2 449.7 635.4 449 636.1 448.2 637 447 636.5 445.3 635.1 444.9L605.6 426.5 622.3 422.5 635.5 430.5C635.5 430.5 635.9 430.6 635.9 430.6 636.9 430.9 638 430.3 638.8 429.5 639.7 428.2 639.2 426.6 637.8 426.2L629 420.5 641.3 417.7C642.4 417.5 643.4 415.8 643.2 414.8 643.2 413.2 641.3 412.7 640.3 412.9L627.9 415.7 633.6 406.8C634.4 405.6 633.9 404 632.6 403.5 631.3 402.7 629.7 403.2 629.2 404.5L621.3 417.7 604.7 421.2 623.1 391.7C624 390.4 623.5 388.8 622.1 388.4 620.9 387.5 619.2 388 618.8 389.4L597.6 423.1 563.1 431.2 573.4 396.8 608.7 377.8C609.9 377.2 610.3 375.8 609.7 374.6 609.1 373.4 607.7 373 606.5 373.6L575.4 390.3 580.4 373.8 593.5 366.7C594.7 366.1 595.1 364.7 594.5 363.5 593.8 362.3 592.5 361.9 591.3 362.5L582.3 367.3 586.2 354.5C587 353.2 585.9 351.9 584.6 351.5 583.2 351.1 582 351.7 581.6 353.1L578 365 573.2 356.1C572.5 354.9 571.1 354.5 569.9 355.1S568.3 357.1 569 358.3L576 371.5 571.1 388 554.4 356.9C553.7 355.7 552.3 355.3 551.1 356 549.9 356.6 549.5 358 550.2 359.2L569.1 394.5 558.9 428.5 534.6 402.6 535.7 363.8C535.7 362.3 534.4 361.5 533.1 361 531.5 361.1 530.7 362.3 530.3 363.7L529.3 398.5 517.5 385.9 518.2 370.6C518.1 369.1 516.9 368.2 515.5 367.8 514 367.8 513.1 369.1 512.8 370L512.7 380.5 503.9 371.3C503.1 370.6 501.3 370 500.4 371.3 499.5 372.5 499.1 373.9 500.4 374.8L509.1 383.9 498.7 383.8C497.1 383.8 496.3 385 496 386 496.2 387 496.8 388.2 497.7 388.5 497.7 388.5 498.2 388.6 498.2 388.6L513.5 389.2 525.3 401.8 490.5 400.9C489 400.9 488.1 402.1 487.8 403.1 488 404.1 488.7 405.3 489.6 405.6 489.6 405.6 490 405.7 490 405.7L529.8 406.7 554.1 432.6 519.6 440.7 485.9 419.5C484.6 418.6 483 419.1 482.6 420.5 481.7 421.8 482.2 423.4 483.6 423.8L513.1 442.3 496.4 446.2 483.2 438.3C482 437.4 480.3 437.9 479.9 439.3 479.1 440.5 479.6 442.2 480.9 442.6L489.8 448.3 477.4 451C476.3 451.2 475.3 452.9 475.5 454 475.7 455 476.5 455.8 477.4 456.1 477.8 456.2 478.3 456.3 478.9 456L491.3 453.2 485.6 462C484.7 463.3 485.2 464.9 486.6 465.4 486.6 465.4 487.1 465.5 487.1 465.5 488 465.8 489.2 465.1 489.9 464.3L497.9 451.2 514.6 447.2 496.2 476.8C495.3 478 495.8 479.7 497.2 480.1 497.2 480.1 497.7 480.2 497.7 480.2 498.6 480.5 499.8 479.9 500.5 479.1L521.7 445.3 556.2 437.2 546 471.2 510.7 490.2C509.5 490.8 509.1 492.2 509.8 493.4 510.4 494.6 511.8 495 513 494.3L543.9 478.1 538.9 494.7 525.8 501.7C524.6 502.4 524.2 503.7 524.8 504.9S526.8 506.5 528 505.9L537 501.1 533.4 513C533 514.4 533.6 515.6 535 516 536.4 516.4 537.6 515.8 538 514.4L541.6 502.5 546.4 511.4C546.7 512 547.1 512.6 548 512.9S549.5 512.9 550.1 512.5C551.3 511.9 551.7 510.5 551.1 509.3L544 496.2 549 479.6 565.7 510.7C566 511.3 566.3 511.9 567.2 512.2 567.7 512.3 568.8 512.2 569.4 511.8 570.6 511.2 571 509.8 570.3 508.6L551.4 473.3 561.6 439.3 585.9 465.2 585 505C585.1 506.1 585.8 507.3 586.7 507.5 586.7 507.5 587.2 507.7 587.2 507.7 588.7 507.6 589.6 506.4 589.8 505.5L590.8 470.7 602.5 483.2 601.9 498.6C602.1 499.6 602.8 500.8 603.7 501.1 603.7 501.1 604.1 501.2 604.1 501.2 605.7 501.2 606.5 500 606.8 499L607 488.6 615.7 497.7C616.2 497.9 616.5 498.5 617 498.6 617.9 498.9 618.9 498.7 619.7 497.9 620.6 496.7 621 495.3 619.7 494.4L611 485.3 621.4 485.4C623 485.4 623.8 484.1 624.1 483.2 624.1 481.7 622.8 480.8 621.9 480.5L606.5 479.9 594.8 467.4 629.6 468.3C631.1 468.3 632 467 632.3 466.1 631.3 464.3 630.2 463 628.7 463Z" fill="rgba(187, 189, 214, 0.41)"></path><path d="M250 544.7L273.8 523.5 285.5 524.4 277.4 531.5C276.3 532.1 276.5 533.3 277 534.4 277.7 534.9 279.2 535.1 279.7 534.4L291 524.8 302.4 525.3 296 534.8 281.3 537.6C281.3 537.6 281 537.8 281 537.8 280.2 538.2 279.9 539.2 279.9 540.1 280.4 541.2 281.1 541.7 282.4 541.6L292.9 539.4 286.5 548.9 255.3 555.4C255.3 555.4 254.8 555.3 254.8 555.3 254.1 555.6 253.7 556.7 253.7 557.6 253.9 558.8 255.1 559.6 256.2 559L283.4 553.5 275.9 565.3 263.7 567.8C263.7 567.8 263.7 567.8 263.3 568 262.6 568.3 262.1 569.1 262.1 569.9 262.6 571 263.5 571.9 264.8 571.7L272.8 570 267.3 578.5C266.4 579.4 266.9 580.5 267.6 581.1 268.5 581.9 269.7 581.8 270.5 580.5L276.2 572.3 277.4 580.2C278 581.3 278.9 582.2 279.9 581.6 281.2 581.4 281.7 580.7 281.6 579.5L279.1 567.3 286.8 555.9 292.5 583.4C292.5 584.3 293.7 585.1 295 584.9 295.7 584.5 296.6 583.6 296.4 582.4L289.9 551.2 296.3 541.8 298.4 552.3C298.6 553.6 299.7 553.9 300.9 553.8 301.8 553.8 302.6 552.5 302.6 551.6L299.4 537.1 305.7 527.3 310.8 537.7 306.1 551.6C305.8 552.7 306.3 553.8 307.4 554.1 308.1 554.7 309.5 554 309.9 552.9L313.3 542.7 318.5 553.1 308 583.3C307.7 584.4 308.2 585.4 309.3 585.8 310.3 586.2 311.4 585.6 311.8 584.6L321 558.1 327 570.3 323.1 582.1C322.7 583.2 323.2 584.2 324.3 584.6 325.4 585 326.4 584.4 326.8 583.3L329.7 575.7 334.1 584.6C334.7 585.7 335.7 586.1 336.8 585.5 337.9 585 338.3 583.9 337.7 582.8L333.3 573.9 340.8 576.4C341.9 576.8 342.9 576.2 343.3 575.2S343.1 573 342 572.7L330.8 568.9 324.6 556.3 350.8 565.2C351.9 565.5 353 565 353.3 563.9 353.7 562.8 353.2 561.8 352.1 561.4L322.1 551.3 316.9 540.9 327.1 544.4C328.2 544.7 329.2 544.2 329.6 543.1 330 542 329.4 541 328.3 540.6L314.4 535.9 309.4 525.9 320.5 526.6 330.5 537.7C331.2 538.3 332.6 538.5 333.2 537.7 334.1 536.9 334.1 536 333.6 534.9L326.4 526.8 337.5 527.6 358.7 551.4C359.6 552.3 360.5 552.3 361.6 551.8 362.5 550.9 362.3 549.6 362 548.9L343.4 527.8 357.4 528.9 365.4 537.8C365.9 538.9 367.2 538.7 368.2 538.2 368.8 537.5 369 536.1 368.1 535.2L362.9 529.2 372.9 529.6C374 530 374.9 529.1 375.1 527.7 375.1 526.8 374.2 525.9 373.3 525.9L363.1 525.1 369.4 519.8C370.3 518.9 370.1 517.6 369.4 517.1 368.8 516 367.9 516 367.2 516.4 366.9 516.5 366.9 516.5 366.5 516.7L357.5 524.8 343.6 523.6 364.4 505.3C365.5 504.7 365.3 503.5 364.8 502.4 364 501.9 363.2 501.9 362.4 502.2 362.1 502.4 362.1 502.4 362.1 502.4L337.7 523.4 326.6 522.7 334.7 515.6C335.6 514.7 335.6 513.8 335 512.7 334.3 512.2 333.3 511.8 332.5 512.2 332.2 512.3 332.2 512.3 331.8 512.5L320.7 522.5 309.6 521.8 315.7 512.5 330.2 509.3C331.5 509.1 332.2 507.9 332.2 507 331.7 505.9 330.8 505 329.7 505.5L319.1 507.7 325.1 498 356.7 491.7C357.6 491.7 358.4 490.4 358.4 489.5 357.8 488.4 356.9 487.5 355.7 487.7L328.5 493.2 336.2 481.8 348 479.5C349.3 479.3 350 478 349.4 477 349.4 476.1 348.6 475.2 347.3 475.4L339.2 477.1 344.8 468.5C345.3 467.8 345.2 466.6 344.3 465.7 343.7 465.5 342.9 465.5 342.1 465.9 342.1 465.9 341.8 466 341.4 466.2L335.9 474.8 334.1 466.7C334.1 465.8 332.8 465.1 331.9 465.1 331.6 465.3 331.6 465.3 331.6 465.3 330.5 465.8 330.1 466.9 330.5 467.6L332.8 479.4 325.3 491.2 319.6 463.7C319.1 462.6 318.4 462 317.1 462.2 317.1 462.2 316.7 462.4 316.7 462.4 316 462.8 315.5 463.5 315.7 464.7L321.8 496 315.7 505.3 313.6 494.8C313.1 493.7 312.2 492.8 311.1 493.3 310.9 493 310.6 493.1 310.6 493.1 309.9 493.5 309.5 494.6 309.5 495.5L312.7 510 306.2 519.4 301.2 509.4 305.9 495.5C306.3 494.4 305.6 493 304.5 492.6 303.6 492.6 302.5 493.1 302 493.8L298.7 504.4 293.6 494 303.7 464C304 462.9 303.5 461.8 302.4 461.5 301.4 461.1 300.3 461.6 299.9 462.7L291.1 489 284.9 476.4 288.6 465.2C289 464.1 288.5 463 287.4 462.7S285.3 462.9 284.9 463.9L282.4 471.4 277.9 462.5C277.4 461.4 276.3 461 275.2 461.6 274.2 462.1 273.8 463.2 274.3 464.3L278.8 473.2 270.9 470.9C270.4 470.7 269.9 470.5 269.5 470.7 269.1 470.9 268.6 471.6 268.4 472.1 268.1 473.2 268.6 474.3 269.7 474.6L281.3 478.2 287.5 490.8 260.9 482.1C260.3 481.9 259.8 481.8 259.4 481.9 259.1 482.1 258.6 482.8 258.4 483.4 258 484.4 258.5 485.5 259.6 485.9L290 495.8 295.2 506.2 284.8 502.4C284.3 502.2 283.5 502.6 283.2 502.7 282.8 502.9 282.5 503.1 282.3 503.6 281.9 504.7 282.6 506.1 283.5 506.1L297.7 511.2 302.6 521.2 291.2 520.6 281.6 509.4C280.8 508.8 279.8 508.5 279.1 508.8 278.7 509 278.7 509 278.9 509.3 277.8 509.9 277.6 511.3 278.5 512.2L285.6 520.3 274.2 519.7 253.2 495.3C252.4 494.8 251.5 494.8 250.8 495.1 250.5 495.3 250.5 495.3 250.5 495.3 249.6 496.2 249.2 497.3 250.1 498.2L268.7 519.3 254.7 518.2 246.7 509.3C245.8 508.4 244.9 508.4 244.2 508.7 244.2 508.7 243.8 508.9 243.8 508.9 242.9 509.8 243.1 511 243.5 511.8L249.2 517.9 239 517.1C238.6 517.3 238.2 517.5 237.9 517.7 237.5 517.8 237 518.5 236.8 519.1 237 520.3 237.5 521.4 238.8 521.2L249 522 242.7 527.3C241.8 528.2 242 529.5 242.3 530.2 243.2 531.1 244.5 530.9 245.6 530.4L254.5 522.3 268.3 523.1 247.5 541.5C246.6 542.4 246.4 543.8 247.1 544.3 248 545.2 249.1 545.6 250 544.7Z" fill="rgba(187, 189, 214, 0.41)"></path><path d="M699.7 91.6L675.8 100.7 667.4 96.7 675.4 93.7C676.4 93.6 676.6 92.6 676.5 91.6 676.1 91 675.1 90.5 674.5 90.9L663.3 94.9 654.9 91.2 662.5 85.9 674.2 88C674.2 88 674.5 88 674.5 88 675.2 87.9 675.8 87.2 676 86.5 675.9 85.6 675.5 85 674.6 84.8L666.1 83.3 673.6 78.1 698.7 82.1C698.7 82.1 699.1 82.4 699.1 82.4 699.7 82.3 700.3 81.6 700.5 80.9 700.8 79.9 700 79.1 699.1 79.1L677.2 75.5 686.2 68.8 696 70.4C696 70.4 696 70.4 696.3 70.4 696.9 70.4 697.5 70 697.8 69.3 697.7 68.3 697.3 67.4 696.3 67.2L689.8 66.2 696.4 61.4C697.3 61 697.2 60 696.8 59.4 696.4 58.5 695.4 58.3 694.5 59L687.9 63.5 689.2 57.3C689.1 56.3 688.7 55.4 687.8 55.5 686.8 55.3 686.2 55.7 686 56.6L684.3 66.4 675.3 72.8 678.9 50.6C679.2 49.9 678.5 49 677.5 48.8 676.8 48.8 675.9 49.3 675.7 50.2L671.7 75.4 664.2 80.6 665.6 72.1C665.8 71.1 665.1 70.6 664.1 70.3 663.5 70.1 662.6 70.8 662.3 71.5L660.6 83.2 653.1 88.8 652.2 79.6 659.7 70.5C660.2 69.8 660.1 68.8 659.4 68.2 659.1 67.6 657.8 67.8 657.2 68.5L651.7 75.1 650.8 65.9 667.3 46.3C667.8 45.6 667.7 44.6 667 44 666.3 43.4 665.4 43.5 664.8 44.2L650.4 61.4 649.3 50.6 655.7 42.9C656.2 42.2 656.1 41.2 655.4 40.7 654.7 40.1 653.8 40.2 653.2 40.9L648.9 45.8 648.1 37.8C648 36.9 647.3 36.3 646.4 36.4 645.4 36.5 644.8 37.2 644.9 38.1L645.7 46.1 640.8 42.1C640.1 41.5 639.1 41.6 638.6 42.3S638.1 44 638.8 44.5L646.1 50.6 647.2 61.7 630.1 47.6C629.4 47.1 628.4 47.2 627.9 47.9 627.3 48.6 627.4 49.5 628.1 50.1L647.7 66.2 648.6 75.4 641.9 70C641.2 69.4 640.3 69.5 639.7 70.2 639.1 70.9 639.2 71.8 639.9 72.4L649 79.9 649.9 88.8 641.8 85.1 637.5 73.9C637.1 73.3 636.1 72.8 635.5 73.2 634.6 73.6 634.3 74.2 634.4 75.2L637.4 83.3 629.4 79.5 620.3 55.7C619.9 54.7 619.2 54.5 618.2 54.6 617.3 55 617.1 56 617.1 56.6L625 77.7 614.9 72.9 611.4 63.9C611.3 63 610.3 62.8 609.4 62.8 608.8 63.2 608.2 64.2 608.7 65.2L610.8 71.1 603.5 67.9C602.8 67.4 601.8 67.8 601.3 68.8 601 69.5 601.4 70.4 602.1 70.6L609.5 74.1 603.3 76.3C602.4 76.7 602.2 77.7 602.5 78.3 602.6 79.3 603.3 79.5 603.9 79.5 604.3 79.4 604.3 79.4 604.6 79.4L613.6 75.9 623.7 80.7 602.9 88.6C601.9 88.7 601.7 89.6 601.8 90.6 602.2 91.2 602.9 91.5 603.5 91.4 603.8 91.4 603.8 91.4 603.8 91.4L628 82.6 636.1 86.3 628.1 89.3C627.1 89.7 626.9 90.4 627 91.3 627.4 92 628.1 92.5 628.7 92.5 629 92.4 629 92.4 629.3 92.4L640.5 88.1 648.6 91.8 641.4 97 629.6 95.3C628.6 95 627.7 95.8 627.5 96.4 627.6 97.4 628 98.3 628.9 98.2L637.4 99.6 630.3 105.2 604.8 100.9C604.1 100.7 603.2 101.4 602.9 102.1 603 103 603.4 103.9 604.4 104.2L626.3 107.8 617.3 114.2 607.8 112.5C606.8 112.3 605.9 113 606 114 605.8 114.6 606.2 115.6 607.2 115.8L613.7 116.8 607.1 121.6C606.5 122 606.3 123 606.7 123.9 607 124.2 607.7 124.4 608.3 124.4 608.3 124.4 608.7 124.3 609 124.3L615.6 119.5 614.6 126C614.4 126.7 615.1 127.6 615.8 127.8 616.1 127.8 616.1 127.8 616.1 127.8 617 127.7 617.6 127 617.5 126.4L619.2 116.9 628.2 110.2 624.6 132.4C624.7 133.4 625 134 626 134.2 626 134.2 626.3 134.2 626.3 134.2 627 134.1 627.6 133.7 627.8 132.7L632.1 107.6 639.3 102.4 637.9 110.9C638 111.8 638.4 112.7 639.3 112.6 639.4 113 639.7 112.9 639.7 112.9 640.3 112.9 640.9 112.2 641.2 111.5L642.9 99.8 650.4 94.5 651.3 103.4 643.8 112.5C643.3 113.2 643.4 114.5 644.1 115.1 644.8 115.3 645.7 115.2 646.3 114.9L651.7 107.9 652.6 117.1 636.6 136.7C636 137.4 636.1 138.4 636.8 138.9 637.5 139.5 638.4 139.4 639 138.7L653.1 121.6 654.2 132.7 648.1 140.1C647.6 140.8 647.7 141.7 648.4 142.3S650 142.8 650.6 142.1L654.6 137.2 655.4 145.2C655.5 146.1 656.2 146.7 657.1 146.6 658.1 146.5 658.7 145.8 658.6 144.8L657.8 136.9 663 140.9C663.4 141.2 663.7 141.4 664 141.4 664.3 141.4 664.9 141 665.2 140.7 665.8 140 665.7 139 665 138.4L657.4 132.4 656.3 121.3 673.7 135.3C674.1 135.6 674.4 135.9 674.7 135.9 675.1 135.8 675.7 135.5 675.9 135.1 676.5 134.4 676.4 133.5 675.7 132.9L655.8 116.8 654.9 107.6 661.6 113.4C661.9 113.6 662.6 113.6 662.9 113.6 663.2 113.5 663.5 113.5 663.8 113.1 664.4 112.4 664.3 111.2 663.6 110.9L654.5 103.1 653.6 94.2 662 97.9 666 109.1C666.4 109.7 667.1 110.3 667.7 110.2 668 110.2 668 110.2 668 109.8 669 109.7 669.5 108.7 669.1 107.8L666.1 99.7 674.5 103.4 683.3 127.6C683.6 128.2 684.3 128.5 684.9 128.4 685.3 128.4 685.3 128.4 685.3 128.4 686.2 128 686.8 127.3 686.3 126.4L678.5 105.3 688.6 110.1 692.1 119.1C692.5 120 693.1 120.2 693.8 120.2 693.8 120.2 694.1 120.1 694.1 120.1 695 119.7 695.2 118.7 695.2 118.1L692.6 111.9 700.1 115.4C700.4 115.4 700.7 115.3 701 115.3 701.3 115.3 701.9 114.9 702.2 114.5 702.5 113.5 702.4 112.6 701.4 112.4L694 108.9 700.2 106.7C701.1 106.3 701.3 105.3 701.3 104.7 700.8 103.7 699.9 103.5 698.9 103.6L689.9 107.1 679.8 102.6 700.6 94.8C701.5 94.3 702.1 93.3 701.7 92.7 701.3 91.8 700.6 91.2 699.7 91.6Z" fill="rgba(187, 189, 214, 0.41)"></path><path d="M1313.4 449.7L1340 450.4 1356.1 467.7 1333.1 473 1310.6 458.8C1310.6 458.8 1310.3 458.7 1310.3 458.7 1309.7 458.6 1308.9 459 1308.4 459.5 1307.8 460.3 1308.2 461.4 1309.1 461.7L1328.7 474.1 1317.6 476.7 1308.8 471.3C1308.8 471.3 1308.5 471.2 1308.5 471.2 1307.9 471.1 1307.1 471.5 1306.6 472 1306 472.8 1306.4 473.9 1307.3 474.2L1313.1 478 1304.9 479.8C1304.2 480 1303.5 481.1 1303.6 481.8 1303.6 482.8 1304.9 483.2 1305.6 483.1L1313.8 481.2 1310 487.1C1309.5 487.9 1309.8 489 1310.7 489.3 1311.5 489.9 1312.6 489.6 1312.9 488.6L1318.3 479.9 1329.3 477.6 1317 497.2C1316.4 498.1 1316.7 499.2 1317.6 499.5 1318.5 500 1319.6 499.7 1319.9 498.8L1334.1 476.3 1357.1 471 1350.1 493.9 1326.5 506.5C1325.7 506.9 1325.5 507.9 1325.9 508.7 1326.3 509.4 1327.2 509.7 1328 509.3L1348.8 498.2 1345.4 509.3 1336.7 513.9C1335.9 514.4 1335.6 515.3 1336 516.1 1336.4 516.9 1337.3 517.2 1338.1 516.7L1344.1 513.5 1341.5 522.1C1340.9 522.9 1341.7 523.8 1342.6 524.1 1343.5 524.4 1344.3 524 1344.6 523L1347 515.1 1350.2 521.1C1350.6 521.9 1351.5 522.2 1352.3 521.7S1353.4 520.4 1353 519.6L1348.3 510.8 1351.7 499.8 1362.7 520.5C1363.2 521.3 1364.1 521.6 1364.9 521.2 1365.7 520.8 1366 519.9 1365.5 519.1L1353 495.5 1359.9 472.8 1376 490.1 1375.2 516C1375.2 517 1376 517.6 1376.9 517.8 1378 517.8 1378.5 517 1378.8 516.1L1379.5 492.9 1387.3 501.3 1386.9 511.5C1386.9 512.5 1387.8 513.1 1388.7 513.4 1389.7 513.4 1390.3 512.5 1390.5 511.9L1390.6 504.9 1396.4 511.1C1396.9 511.6 1398.1 511.9 1398.7 511.1 1399.3 510.3 1399.6 509.4 1398.8 508.8L1392.9 502.6 1399.9 502.8C1400.9 502.7 1401.5 501.9 1401.7 501.3 1401.6 500.6 1401.2 499.8 1400.6 499.6 1400.6 499.6 1400.3 499.5 1400.3 499.5L1390 499.1 1382.2 490.7 1405.4 491.4C1406.4 491.4 1407 490.5 1407.2 489.9 1407.1 489.2 1406.6 488.4 1406 488.2 1406 488.2 1405.7 488.1 1405.7 488.1L1379.2 487.4 1363 470.1 1386.1 464.8 1408.5 479C1409.3 479.5 1410.5 479.2 1410.7 478.3 1411.3 477.5 1411 476.4 1410.1 476.1L1390.4 463.7 1401.6 461.1 1410.3 466.5C1411.1 467 1412.3 466.7 1412.5 465.8 1413.1 465 1412.8 463.9 1411.9 463.6L1406 459.8 1414.2 458C1415 457.8 1415.6 456.7 1415.5 456 1415.4 455.3 1414.9 454.8 1414.3 454.6 1414 454.5 1413.7 454.4 1413.3 454.6L1405 456.5 1408.8 450.6C1409.4 449.8 1409 448.7 1408.1 448.4 1408.1 448.4 1407.8 448.3 1407.8 448.3 1407.2 448.1 1406.4 448.5 1405.9 449.1L1400.6 457.8 1389.4 460.4 1401.8 440.8C1402.3 439.9 1402 438.8 1401.1 438.6 1401.1 438.6 1400.8 438.5 1400.8 438.5 1400.2 438.3 1399.4 438.7 1398.9 439.2L1384.7 461.7 1361.6 467 1368.5 444.4 1392.1 431.8C1392.9 431.4 1393.2 430.5 1392.8 429.7 1392.3 428.9 1391.4 428.6 1390.6 429L1369.9 439.8 1373.3 428.8 1382.1 424.1C1382.9 423.6 1383.2 422.7 1382.7 421.9S1381.4 420.9 1380.6 421.3L1374.6 424.5 1377 416.5C1377.3 415.6 1376.9 414.8 1376 414.5 1375 414.2 1374.2 414.7 1374 415.6L1371.5 423.5 1368.4 417.6C1368.1 417.2 1367.9 416.8 1367.3 416.6S1366.3 416.6 1365.9 416.8C1365.1 417.2 1364.8 418.1 1365.2 418.9L1369.9 427.7 1366.6 438.8 1355.5 418C1355.3 417.6 1355.1 417.2 1354.5 417 1354.2 416.9 1353.5 417 1353.1 417.2 1352.3 417.7 1352 418.6 1352.4 419.4L1365 442.9 1358.1 465.6 1341.9 448.3 1342.6 421.8C1342.5 421.1 1342.1 420.3 1341.5 420.1 1341.5 420.1 1341.2 420 1341.2 420 1340.2 420 1339.6 420.8 1339.4 421.4L1338.7 444.6 1330.9 436.2 1331.3 426C1331.2 425.3 1330.8 424.5 1330.2 424.3 1330.2 424.3 1329.9 424.2 1329.9 424.2 1328.8 424.3 1328.3 425.1 1328.1 425.7L1328 432.7 1322.1 426.6C1321.8 426.5 1321.6 426.1 1321.3 426 1320.7 425.8 1320 425.9 1319.5 426.4 1318.9 427.2 1318.6 428.2 1319.4 428.7L1325.3 434.9 1318.3 434.7C1317.3 434.8 1316.7 435.6 1316.5 436.2 1316.5 437.2 1317.4 437.8 1318 438L1328.2 438.4 1336 446.8 1312.8 446.1C1311.8 446.2 1311.2 447 1311 447.6 1311.7 448.8 1312.4 449.7 1313.4 449.7Z" fill="rgba(187, 189, 214, 0.41)"></path></g><defs><mask id="SvgjsMask1030"><rect width="1440" height="560" fill="#ffffff"></rect></mask><filter id="SvgjsFilter1031"><feGaussianBlur stdDeviation="1"></feGaussianBlur></filter></defs></svg>